# xmcd CD database file
#
# Track frame offsets:
#	150
#	11521
#	29499
#	48251
#	61964
#	75937
#	92818
#	106044
#	123331
#	135604
#	150138
#	164461
#
# Disc length: 2447 seconds
#
# Revision: 1
# Processed by: cddbd v1.5.1PL2 Copyright (c) Steve Scherf et al.
# Submitted via: CDex 1.51
#
DISCID=82098d0c
DTITLE=Todd Fritsch - Todd Fritsch
DYEAR=2005
DGENRE=Country
TTITLE0=I Got Mexico
TTITLE1=Small Town Radio
TTITLE2=I Don't Live Here Anymore
TTITLE3=Memory Do Your Thing
TTITLE4=You Know I Would
TTITLE5=Dancin' In The Rain
TTITLE6=Bob Wills Song
TTITLE7=Corpus Christi Callin'
TTITLE8=Friends Behind Bars
TTITLE9=First Date (For The Last Time)
TTITLE10=Walk Softly On The Bridges
TTITLE11=Cowboy Legacy
EXTD=YEAR: 2005
EXTT0=
EXTT1=
EXTT2=
EXTT3=
EXTT4=
EXTT5=
EXTT6=
EXTT7=
EXTT8=
EXTT9=
EXTT10=
EXTT11=
PLAYORDER=
